<svg width="99.999995" height="99.999995" xmlns="http://www.w3.org/2000/svg">

 <g>
  <title>background</title>
  <rect fill="none" id="canvas_background" height="402" width="582" y="-1" x="-1"/>
 </g>
 <g>
  <title>Layer 1</title>
  <path fill="#666666" fill-rule="nonzero" stroke-width="3.8" stroke-linecap="round" stroke-linejoin="round" stroke-miterlimit="4" stroke-dashoffset="0" id="rect4208" d="m20,0c-11.08001,0 -20,8.91999 -20,20l0,60c0,11.08001 8.91999,20 20,20l60,0c11.08001,0 20,-8.91999 20,-20l0,-60c0,-11.08001 -8.91999,-20 -20,-20l-60,0zm30,13.63477a16.125,16.125 0 0 1 16.125,16.125a16.125,16.125 0 0 1 -16.125,16.125a16.125,16.125 0 0 1 -16.125,-16.125a16.125,16.125 0 0 1 16.125,-16.125zm11.76758,33.43164c9.04513,7.22021 16.1543,11.67294 16.1543,39.29882l-55.84375,0c0,-27.11727 7.10319,-32.07281 16.14453,-39.29687c3.69229,1.54181 7.70952,2.34451 11.77734,2.35352c4.06446,-0.01085 8.07864,-0.81432 11.76758,-2.35547z"/>
 </g>
</svg>